<svg xmlns="http://www.w3.org/2000/svg" viewBox="0 0 1000 1000"><g id="Layer_4" data-name="Layer 4"><path d="M0,0V1000H1000V0ZM481,684.13H100V587l90-90.22L306.69,405,160,411.91H108.11V303.17H472.85v97.17L378,482.08,254,581.56l148.33-6.17H481ZM900,900H760.06V691.38c0-45.35-8.55-69.54-50.54-69.54-40.42,0-50.53,14.36-50.53,74.83V900H519.05V526.61H659V637.72c10.88-62,45.87-118.67,126-118.67,71.52,0,115.06,43.08,115.06,119.42ZM842.63,434.21c-102.92,83.35-209.74,67.8-279.7-18.6S501.18,220.52,592.6,146.49c102.31-82.85,199.22-53.56,254.72,15,11.19,13.83,27.24,36.12,31,44.5L686.42,361.39c29.05,22.25,60.59,12.92,90.86-11.59,29.67-24,44.93-49.74,36.38-83.82l114.5,6.46C928,319.3,911,378.81,842.63,434.21Zm-186.93-211c-29.66,24-36.31,54.2-14.47,86.11l99.29-80.4C715.38,201.56,688.4,196.71,655.7,223.18Z"/></g></svg>